<?xml version="1.0" encoding="UTF-8" standalone="no"?>
<!DOCTYPE svg PUBLIC "-//W3C//DTD SVG 1.1//EN" "http://www.w3.org/Graphics/SVG/1.1/DTD/svg11.dtd">
<svg width="110.30px" height="108.95px" viewBox="-8 -8 110.30 108.95" version="1.1" xmlns="http://www.w3.org/2000/svg" xmlns:xlink="http://www.w3.org/1999/xlink" xml:space="preserve" xmlns:serif="http://www.serif.com/" style="fill-rule:evenodd;clip-rule:evenodd;stroke-linejoin:round;stroke-miterlimit:2;">
    <g transform="matrix(1,0,0,1,-9.069795,-6.742135)">
        <g transform="matrix(1,0,0,1,1,-7)">
            <path d="M43,14C50,14.667 59.167,17.833 64,21C68.732,24.1 73.5,27.17 76,33C78.5,38.83 80.67,43 81,46C81.33,49 76.67,49 78,51C79.33,53 85.33,57 86,59C86.67,61 82.83,61.33 82,63C81.17,64.67 84.17,64.67 84,68C83.932,69.339 81.17,69.83 81,71C80.83,72.17 83,73.5 83,75C83,76.5 83.17,78.33 81,80C78.83,81.67 70,84 70,84C70,84 65.33,84.5 64,89C62.67,93.5 58,105 58,105C58,105 46.333,93.333 40,90C33.919,86.799 26.833,88.833 23,86C19.684,83.549 21.67,78.67 20,74C19.167,71.671 12.888,62.455 10.08,53.811C7.259,45.126 7.912,37.01 9,33C11.17,25 15.854,20.073 22,17C28.333,13.833 36,13.333 43,14Z" style="fill-rule:nonzero;"/>
        </g>
        <g transform="matrix(1,0,0,1,6,0)">
            <path d="M82.811,67.42C82.703,67.327 82.373,67.051 82.124,66.877C81.614,66.523 81.056,66.158 80.658,65.812C80.284,65.486 80.022,65.147 79.886,64.842L79.737,64.28L79.74,63.945L79.814,63.605C79.909,63.319 80.117,62.977 80.453,62.63C80.898,62.169 81.642,61.621 82.368,61.068C82.796,60.742 83.341,60.227 83.614,59.963C83.548,59.882 83.471,59.792 83.403,59.724C83,59.318 82.487,58.896 82.051,58.482C81.578,58.033 81.19,57.576 80.978,57.16L80.824,56.786L80.734,56.339L80.734,56.003L80.798,55.657C80.962,55.085 81.52,54.444 82.399,53.921C83.599,53.207 85.531,52.597 86.2,52.04C86.347,51.917 86.584,51.642 86.739,51.455C84.878,49.457 78.204,43.964 78.204,43.964C77.944,43.749 77.782,43.439 77.754,43.103C77.727,42.767 77.836,42.434 78.057,42.18C78.057,42.18 79.158,40.914 79.98,39.456C80.426,38.666 80.848,37.832 80.76,37.162C80.278,33.465 78.507,25.373 75.004,20.755C71.427,16.04 59.372,9.081 59.372,9.081C58.775,8.734 60.032,6.573 60.628,6.919C60.628,6.919 73.239,14.293 76.996,19.245C80.757,24.202 82.722,32.869 83.24,36.838C83.352,37.701 83.096,38.758 82.614,39.799C82.09,40.928 81.318,42.052 80.738,42.823C82.859,44.601 87.907,48.883 88.976,50.219L89.231,50.643L89.361,51.107L89.372,51.546L89.303,51.929C89.106,52.648 88.369,53.486 87.8,53.96C87.156,54.497 85.495,55.129 84.181,55.795C83.93,55.922 83.632,56.119 83.421,56.265C83.631,56.496 83.954,56.84 84.208,57.068C84.852,57.645 85.504,58.236 85.846,58.763C85.992,58.986 86.096,59.207 86.161,59.419L86.25,60L86.181,60.502L85.927,61.087C85.651,61.55 85.115,62.08 84.472,62.598C83.905,63.054 83.083,63.724 82.582,64.132C82.728,64.248 82.887,64.369 83.019,64.46C83.632,64.881 84.27,65.316 84.644,65.713C84.806,65.885 84.933,66.058 85.026,66.224L85.22,66.729C85.446,67.745 85.638,69.474 85.371,70.998C85.156,72.223 84.638,73.309 83.767,73.987C82.213,75.196 78.64,77.689 75.034,79.158C71.668,80.528 68.273,80.878 66.741,82.006C66.15,82.442 66.015,83.183 65.881,83.948C65.675,85.127 65.575,86.398 65.165,87.453C63.995,90.462 60.15,99.49 60.15,99.49C59.88,100.125 57.58,99.145 57.85,98.51C57.85,98.51 61.672,89.538 62.835,86.547C63.275,85.416 63.274,83.999 63.568,82.791C63.845,81.653 64.34,80.67 65.259,79.994C66.894,78.789 70.498,78.305 74.091,76.842C77.443,75.477 80.787,73.137 82.233,72.013C82.643,71.694 82.807,71.143 82.908,70.566C83.102,69.461 82.972,68.216 82.811,67.42Z"/>
        </g>
        <g transform="matrix(1,0,0,1,14,0)">
            <path d="M82.811,67.42C82.703,67.327 82.373,67.051 82.124,66.877C81.614,66.523 81.056,66.158 80.658,65.812C80.284,65.486 80.022,65.147 79.886,64.842L79.737,64.28L79.74,63.945L79.814,63.605C79.909,63.319 80.117,62.977 80.453,62.63C80.898,62.169 81.642,61.621 82.368,61.068C82.796,60.742 83.341,60.227 83.614,59.963C83.548,59.882 83.471,59.792 83.403,59.724C83,59.318 82.487,58.896 82.051,58.482C81.578,58.033 81.19,57.576 80.978,57.16L80.824,56.786L80.734,56.339L80.734,56.003L80.798,55.657C80.962,55.085 81.52,54.444 82.399,53.921C83.599,53.207 85.531,52.597 86.2,52.04C86.347,51.917 86.584,51.642 86.739,51.455C84.878,49.457 78.204,43.964 78.204,43.964C77.944,43.749 77.782,43.439 77.754,43.103C77.727,42.767 77.836,42.434 78.057,42.18C78.057,42.18 79.158,40.914 79.98,39.456C80.426,38.666 80.848,37.832 80.76,37.162C80.278,33.465 78.507,25.373 75.004,20.755C71.427,16.04 61.372,9.081 61.372,9.081C60.775,8.734 62.032,6.573 62.628,6.919C62.628,6.919 73.239,14.293 76.996,19.245C80.757,24.202 82.722,32.869 83.24,36.838C83.352,37.701 83.096,38.758 82.614,39.799C82.09,40.928 81.318,42.052 80.738,42.823C82.859,44.601 87.907,48.883 88.976,50.219L89.231,50.643L89.361,51.107L89.372,51.546L89.303,51.929C89.106,52.648 88.369,53.486 87.8,53.96C87.156,54.497 85.495,55.129 84.181,55.795C83.93,55.922 83.632,56.119 83.421,56.265C83.631,56.496 83.954,56.84 84.208,57.068C84.852,57.645 85.504,58.236 85.846,58.763C85.992,58.986 86.096,59.207 86.161,59.419L86.25,60L86.181,60.502L85.927,61.087C85.651,61.55 85.115,62.08 84.472,62.598C83.905,63.054 83.083,63.724 82.582,64.132C82.728,64.248 82.887,64.369 83.019,64.46C83.632,64.881 84.27,65.316 84.644,65.713C84.806,65.885 84.933,66.058 85.026,66.224L85.22,66.729C85.446,67.745 85.638,69.474 85.371,70.998C85.156,72.223 84.638,73.309 83.767,73.987C82.213,75.196 76.64,80.689 73.034,82.158C69.668,83.528 67.273,83.878 65.741,85.006C65.15,85.442 65.015,86.183 64.881,86.948C64.675,88.127 63.575,91.398 63.165,92.453C61.995,95.462 60.15,99.49 60.15,99.49C59.88,100.125 57.58,99.145 57.85,98.51C57.85,98.51 59.672,94.538 60.835,91.547C61.275,90.416 62.274,86.999 62.568,85.791C62.845,84.653 63.34,83.67 64.259,82.994C65.894,81.789 68.498,81.305 72.091,79.842C75.443,78.477 80.787,73.137 82.233,72.013C82.643,71.694 82.807,71.143 82.908,70.566C83.102,69.461 82.972,68.216 82.811,67.42Z"/>
        </g>
    </g>
</svg>
